<svg width="99" height="44" viewBox="0 0 99 44" fill="none" xmlns="http://www.w3.org/2000/svg">
<circle cx="94" cy="17" r="5" fill="#8FA5F1"/>
<path d="M11.008 17.144C13.1413 17.144 14.8693 17.7947 16.192 19.096C17.5147 20.376 18.176 22.232 18.176 24.664V35H15.296V25.08C15.296 23.3307 14.8587 21.9973 13.984 21.08C13.1093 20.1413 11.9147 19.672 10.4 19.672C8.864 19.672 7.63733 20.152 6.72 21.112C5.824 22.072 5.376 23.4693 5.376 25.304V35H2.464V17.464H5.376V19.96C5.952 19.064 6.73067 18.3707 7.712 17.88C8.71467 17.3893 9.81333 17.144 11.008 17.144ZM38.9328 25.56C38.9328 26.1147 38.9008 26.7013 38.8368 27.32H24.8208C24.9274 29.048 25.5141 30.4027 26.5808 31.384C27.6688 32.344 28.9808 32.824 30.5168 32.824C31.7754 32.824 32.8208 32.536 33.6528 31.96C34.5061 31.3627 35.1034 30.5733 35.4448 29.592H38.5808C38.1114 31.2773 37.1728 32.6533 35.7648 33.72C34.3568 34.7653 32.6074 35.288 30.5168 35.288C28.8528 35.288 27.3594 34.9147 26.0368 34.168C24.7354 33.4213 23.7114 32.3653 22.9648 31C22.2181 29.6133 21.8448 28.0133 21.8448 26.2C21.8448 24.3867 22.2074 22.7973 22.9328 21.432C23.6581 20.0667 24.6714 19.0213 25.9728 18.296C27.2954 17.5493 28.8101 17.176 30.5168 17.176C32.1808 17.176 33.6528 17.5387 34.9328 18.264C36.2128 18.9893 37.1941 19.992 37.8768 21.272C38.5808 22.5307 38.9328 23.96 38.9328 25.56ZM35.9248 24.952C35.9248 23.8427 35.6794 22.8933 35.1888 22.104C34.6981 21.2933 34.0261 20.6853 33.1728 20.28C32.3408 19.8533 31.4128 19.64 30.3888 19.64C28.9168 19.64 27.6581 20.1093 26.6128 21.048C25.5888 21.9867 25.0021 23.288 24.8528 24.952H35.9248ZM66.1365 17.464L60.6645 35H57.6565L53.4325 21.08L49.2085 35H46.2005L40.6965 17.464H43.6725L47.7045 32.184L52.0565 17.464H55.0325L59.2885 32.216L63.2565 17.464H66.1365ZM75.2345 35.288C73.8905 35.288 72.6852 35.064 71.6185 34.616C70.5518 34.1467 69.7092 33.5067 69.0905 32.696C68.4718 31.864 68.1305 30.9147 68.0665 29.848H71.0745C71.1598 30.7227 71.5652 31.4373 72.2905 31.992C73.0372 32.5467 74.0078 32.824 75.2025 32.824C76.3118 32.824 77.1865 32.5787 77.8265 32.088C78.4665 31.5973 78.7865 30.9787 78.7865 30.232C78.7865 29.464 78.4452 28.8987 77.7625 28.536C77.0798 28.152 76.0238 27.7787 74.5945 27.416C73.2932 27.0747 72.2265 26.7333 71.3945 26.392C70.5838 26.0293 69.8798 25.5067 69.2825 24.824C68.7065 24.12 68.4185 23.2027 68.4185 22.072C68.4185 21.176 68.6852 20.3547 69.2185 19.608C69.7518 18.8613 70.5092 18.2747 71.4905 17.848C72.4718 17.4 73.5918 17.176 74.8505 17.176C76.7918 17.176 78.3598 17.6667 79.5545 18.648C80.7492 19.6293 81.3892 20.9733 81.4745 22.68H78.5625C78.4985 21.7627 78.1252 21.0267 77.4425 20.472C76.7812 19.9173 75.8852 19.64 74.7545 19.64C73.7092 19.64 72.8772 19.864 72.2585 20.312C71.6398 20.76 71.3305 21.3467 71.3305 22.072C71.3305 22.648 71.5118 23.128 71.8745 23.512C72.2585 23.8747 72.7278 24.1733 73.2825 24.408C73.8585 24.6213 74.6478 24.8667 75.6505 25.144C76.9092 25.4853 77.9332 25.8267 78.7225 26.168C79.5118 26.488 80.1838 26.9787 80.7385 27.64C81.3145 28.3013 81.6132 29.1653 81.6345 30.232C81.6345 31.192 81.3678 32.056 80.8345 32.824C80.3012 33.592 79.5438 34.2 78.5625 34.648C77.6025 35.0747 76.4932 35.288 75.2345 35.288Z" fill="black"/>
</svg>
